<mxfile host="app.diagrams.net" modified="2024-03-11T09:59:06.252Z" agent="Mozilla/5.0 (X11; Linux x86_64) AppleWebKit/537.36 (KHTML, like Gecko) Chrome/122.0.0.0 Safari/537.36" etag="_anWnKDe-n17xmAeAt-g" version="24.0.4" type="github">
  <diagram id="R2lEEEUBdFMjLlhIrx00" name="Page-1">
    <mxGraphModel dx="1259" dy="643" grid="1" gridSize="10" guides="1" tooltips="1" connect="1" arrows="1" fold="1" page="1" pageScale="1" pageWidth="850" pageHeight="1100" math="0" shadow="0" extFonts="Permanent Marker^https://fonts.googleapis.com/css?family=Permanent+Marker">
      <root>
        <mxCell id="0" />
        <mxCell id="1" parent="0" />
        <mxCell id="jT48C5pS6HRnwmVZrtM8-1" value="Online Bus Reservation System" style="ellipse;whiteSpace=wrap;html=1;aspect=fixed;" vertex="1" parent="1">
          <mxGeometry x="360" y="300" width="120" height="120" as="geometry" />
        </mxCell>
        <mxCell id="jT48C5pS6HRnwmVZrtM8-2" value="&lt;b&gt;Admin&lt;/b&gt;" style="rounded=0;whiteSpace=wrap;html=1;" vertex="1" parent="1">
          <mxGeometry x="120" y="170" width="120" height="50" as="geometry" />
        </mxCell>
        <mxCell id="jT48C5pS6HRnwmVZrtM8-3" value="&lt;b&gt;Ticket Agencies&lt;/b&gt;" style="rounded=0;whiteSpace=wrap;html=1;" vertex="1" parent="1">
          <mxGeometry x="600" y="520" width="120" height="50" as="geometry" />
        </mxCell>
        <mxCell id="jT48C5pS6HRnwmVZrtM8-4" value="&lt;b&gt;Payment Gateway&lt;/b&gt;" style="rounded=0;whiteSpace=wrap;html=1;" vertex="1" parent="1">
          <mxGeometry x="120" y="520" width="120" height="50" as="geometry" />
        </mxCell>
        <mxCell id="jT48C5pS6HRnwmVZrtM8-5" value="&lt;b&gt;User&lt;/b&gt;" style="rounded=0;whiteSpace=wrap;html=1;" vertex="1" parent="1">
          <mxGeometry x="600" y="170" width="120" height="50" as="geometry" />
        </mxCell>
        <mxCell id="jT48C5pS6HRnwmVZrtM8-7" value="" style="endArrow=classic;startArrow=classic;html=1;rounded=0;entryX=0;entryY=1;entryDx=0;entryDy=0;exitX=1;exitY=0;exitDx=0;exitDy=0;" edge="1" parent="1" source="jT48C5pS6HRnwmVZrtM8-1" target="jT48C5pS6HRnwmVZrtM8-5">
          <mxGeometry width="50" height="50" relative="1" as="geometry">
            <mxPoint x="510" y="310" as="sourcePoint" />
            <mxPoint x="560" y="260" as="targetPoint" />
          </mxGeometry>
        </mxCell>
        <mxCell id="jT48C5pS6HRnwmVZrtM8-8" value="" style="endArrow=classic;startArrow=classic;html=1;rounded=0;exitX=0.984;exitY=0.276;exitDx=0;exitDy=0;exitPerimeter=0;" edge="1" parent="1" target="jT48C5pS6HRnwmVZrtM8-1">
          <mxGeometry width="50" height="50" relative="1" as="geometry">
            <mxPoint x="240" y="520" as="sourcePoint" />
            <mxPoint x="362" y="427" as="targetPoint" />
          </mxGeometry>
        </mxCell>
        <mxCell id="jT48C5pS6HRnwmVZrtM8-9" value="" style="endArrow=classic;startArrow=classic;html=1;rounded=0;exitX=1;exitY=1;exitDx=0;exitDy=0;" edge="1" parent="1" source="jT48C5pS6HRnwmVZrtM8-2" target="jT48C5pS6HRnwmVZrtM8-1">
          <mxGeometry width="50" height="50" relative="1" as="geometry">
            <mxPoint x="240" y="240" as="sourcePoint" />
            <mxPoint x="362" y="147" as="targetPoint" />
          </mxGeometry>
        </mxCell>
        <mxCell id="jT48C5pS6HRnwmVZrtM8-10" value="" style="endArrow=classic;startArrow=classic;html=1;rounded=0;exitX=0;exitY=0;exitDx=0;exitDy=0;" edge="1" parent="1" source="jT48C5pS6HRnwmVZrtM8-3" target="jT48C5pS6HRnwmVZrtM8-1">
          <mxGeometry width="50" height="50" relative="1" as="geometry">
            <mxPoint x="590" y="523" as="sourcePoint" />
            <mxPoint x="712" y="430" as="targetPoint" />
          </mxGeometry>
        </mxCell>
        <mxCell id="jT48C5pS6HRnwmVZrtM8-11" value="&lt;b&gt;Level - 0 Diagram&lt;/b&gt;&lt;div&gt;&lt;br&gt;&lt;/div&gt;" style="text;html=1;align=center;verticalAlign=middle;resizable=0;points=[];autosize=1;strokeColor=none;fillColor=none;" vertex="1" parent="1">
          <mxGeometry x="340" y="643" width="120" height="40" as="geometry" />
        </mxCell>
      </root>
    </mxGraphModel>
  </diagram>
</mxfile>
